<svg width="415" height="352" viewBox="0 0 415 352" fill="none" xmlns="http://www.w3.org/2000/svg">
<path fill-rule="evenodd" clip-rule="evenodd" d="M263.288 271.486L263.29 271.487L263.291 271.487L263.292 271.488L263.292 271.488L263.293 271.488L263.293 271.488C269.055 273.314 274.713 275.108 280.424 276.718C283.638 277.624 284.685 279.232 283.926 282.39C283.296 285.01 282.107 287.303 280.459 289.388C277.291 293.396 274.133 297.412 270.976 301.429L270.945 301.467C263.284 311.211 255.623 320.956 247.814 330.58C239.264 341.118 228.372 348.469 214.85 350.616C200.644 352.871 187.814 348.821 176.387 340.044C170.465 335.495 165.964 329.723 161.462 323.95C160.452 322.655 159.442 321.36 158.416 320.079C153.402 313.817 148.45 307.507 143.497 301.196C140.268 297.082 137.039 292.968 133.794 288.868C131.987 286.585 130.95 284.134 130.422 281.207C129.7 277.208 128.835 273.235 127.97 269.262C127.123 265.372 126.276 261.481 125.563 257.566C124.55 252 123.464 246.457 122.251 240.933C121.923 239.437 121.257 238.64 119.639 238.583C107.633 238.16 104.473 230.454 102.378 222.749C100.62 216.285 98.6307 209.895 96.6409 203.505L96.6408 203.505C95.82 200.87 94.9993 198.234 94.1948 195.593C91.8993 188.058 89.6522 180.508 87.4052 172.957C86.8593 171.123 86.3134 169.289 85.7668 167.455C85.4871 166.517 85.2288 165.571 84.9706 164.626L84.9704 164.626C84.6266 163.368 84.2829 162.11 83.8887 160.868C82.6015 156.812 84.2699 151.086 87.6029 148.368C91.916 144.851 99.0152 143.279 102.154 146.341C105.702 149.801 108.303 148.341 111.308 146.654L111.313 146.651C111.443 146.578 111.574 146.505 111.706 146.431L111.873 146.338C131.225 135.607 151.321 126.416 171.694 117.83C176.348 115.869 181.078 114.093 185.809 112.316C189.265 111.019 192.722 109.721 196.148 108.351C197.352 107.87 198.356 107.85 199.287 108.106C197.471 105.067 196.405 101.528 196.345 97.7444C195.494 98.5942 194.439 99.1654 193.168 99.607C165.829 109.11 139.622 121.183 113.933 134.431C111.775 135.544 109.647 136.718 107.468 137.92L107.458 137.926L107.456 137.927L107.453 137.929L107.444 137.934L107.441 137.936C106.423 138.497 105.394 139.064 104.345 139.635C103.129 137.344 102.453 135.382 102.168 133.179C101.764 130.068 101.254 126.967 100.745 123.87C100.248 120.851 99.7521 117.836 99.3558 114.817C98.4242 107.719 97.5556 100.467 98.6531 93.2635C99.0087 90.9299 98.7885 89.5797 96.137 89.0471C90.1824 87.851 84.1841 87.0332 78.1731 86.2137L78.1729 86.2137C77.4764 86.1187 76.7797 86.0237 76.0829 85.9282C65.1927 84.4341 54.2915 83.9201 43.3414 84.1475C38.0841 84.2566 32.8911 85.1634 28.0044 87.2007C22.6698 89.4248 21.5505 92.3195 23.6746 97.6572C26.3517 104.384 30.734 109.971 35.5412 115.256C47.7816 128.711 62.1357 139.672 76.9576 150.061C78.8387 151.38 79.7565 152.399 79.079 155.064C78.1356 158.777 79.335 162.316 80.5245 165.825L80.5246 165.825C80.8521 166.792 81.1789 167.756 81.46 168.721C82.1613 171.128 82.9415 173.513 83.7217 175.898C84.1939 177.341 84.666 178.784 85.1207 180.232C85.3557 180.981 85.3341 181.753 84.6113 182.381C83.6679 182.805 83.0018 182.255 82.3617 181.725C82.2568 181.639 82.1526 181.552 82.048 181.471C76.5325 177.19 70.9073 173.047 65.2821 168.904L65.282 168.904L65.2819 168.904L65.2818 168.904L65.2817 168.904L65.2816 168.904C53.0874 159.923 40.8934 150.943 29.8172 140.55C18.9948 130.394 8.98984 119.611 3.21172 105.557C-4.53446 86.7149 5.37535 71.0739 23.0923 65.5785C38.2689 60.8711 53.7609 61.7236 69.304 62.9893C75.1153 63.4625 80.8511 64.3734 86.5877 65.2844C88.7103 65.6215 90.8331 65.9587 92.9598 66.2736C93.2321 66.3139 93.5053 66.3539 93.7791 66.3939L93.7813 66.3942L93.7814 66.3942C96.2124 66.7496 98.6879 67.1114 100.954 67.8077C103.696 68.65 104.629 67.6722 105.293 65.5697C107.916 57.2711 111.947 49.6702 116.543 42.3216C124.968 28.8506 137.023 19.7777 151.254 13.1878C161.902 8.25656 172.889 4.57414 184.415 2.20614C198.132 -0.612013 211.929 -0.556243 225.56 1.39012C245.041 4.17175 263.352 10.8221 279.262 22.7019C293.66 33.4526 303.789 47.5151 309.321 64.7282C309.488 65.2473 309.724 65.747 309.958 66.2413C310.11 66.5621 310.279 66.8747 310.494 67.2724C310.603 67.4722 310.722 67.6936 310.858 67.9482C312.767 67.6024 314.671 67.2406 316.572 66.8793L316.575 66.8788C320.88 66.0606 325.173 65.2447 329.494 64.6217C336.414 63.6237 343.37 62.6424 350.343 62.2917C358.326 61.8903 366.372 61.7728 374.342 62.2878C385.136 62.9851 395.561 65.3865 404.278 72.4223C408.85 76.1121 411.552 80.9199 413.122 86.6193C416.078 97.3459 411.76 106.343 406.575 114.992C398.357 128.7 386.802 139.476 374.588 149.538C365.352 157.146 355.637 164.12 345.922 171.095L345.913 171.101C341.664 174.151 337.415 177.202 333.206 180.305C333.036 180.43 332.869 180.566 332.7 180.703C331.952 181.309 331.176 181.937 330.084 181.754C329.163 181.031 329.427 180.293 329.704 179.516C329.757 179.368 329.811 179.217 329.857 179.066C331.75 172.809 333.636 166.549 335.434 160.265C335.886 158.685 336.002 156.964 335.171 155.451C333.919 153.173 334.904 151.868 336.779 150.573C349.864 141.532 362.445 131.858 373.728 120.603C379.166 115.178 384.19 109.402 388.19 102.798C389.679 100.34 390.777 97.7544 391.402 94.9459C392.128 91.6809 391 89.4706 387.969 88.0147C382.44 85.3586 376.536 84.3476 370.515 84.1789L370.065 84.1663C360.908 83.9093 351.693 83.6507 342.634 85.0495C340.556 85.3702 338.473 85.6629 336.388 85.9557L336.388 85.9558L336.388 85.9559L336.387 85.9559L336.387 85.956L336.386 85.9561C330.164 86.8302 323.934 87.7055 317.837 89.3308C316.234 89.7581 315.746 90.3853 315.905 92.0545C316.898 102.477 315.526 112.702 313.485 122.921C312.414 128.284 311.625 133.704 310.818 139.248C310.454 141.751 310.086 144.28 309.687 146.84C310.811 146.621 311.891 146.313 312.959 146.009L312.959 146.009L312.96 146.009C314.886 145.46 316.778 144.921 318.836 144.928C326.345 144.95 332.835 154.619 330.62 161.208C327.252 171.22 324.294 181.37 321.335 191.52L321.334 191.522C320.085 195.809 318.835 200.095 317.555 204.372C315.432 211.461 313.299 218.546 311.146 225.626C308.594 234.017 304.058 237.646 295.077 238.55C292.027 238.857 291.848 240.941 291.675 242.952C291.617 243.616 291.561 244.272 291.402 244.853C290.818 246.987 292.397 247.756 294.402 248.222C297.529 248.95 300.638 249.755 303.748 250.56L303.749 250.56C307.177 251.447 310.605 252.334 314.057 253.119C316.097 253.582 318.172 253.897 320.247 254.211L320.248 254.212C322.595 254.568 324.942 254.923 327.236 255.495C331.732 256.614 336.308 257.103 340.878 257.591H340.879L340.88 257.591L340.881 257.591C342.696 257.785 344.511 257.978 346.319 258.212C352.905 259.061 359.581 258.948 366.247 258.836H366.247H366.248H366.248H366.248H366.249L366.252 258.836L366.255 258.836L366.766 258.827L367.352 258.817C367.776 258.81 368.199 258.804 368.622 258.797C374.941 258.704 381.013 257.829 386.835 255.402C391.241 253.565 392.339 251.501 391.151 246.906C389.664 241.157 386.25 236.46 382.541 231.962C369.798 216.505 354.016 204.526 337.836 193.005C336.983 192.397 336.111 191.816 335.238 191.235L335.236 191.234C334.467 190.722 333.699 190.21 332.943 189.68C331.354 188.566 331.006 187.391 332.782 186.061C336.777 183.069 340.754 180.054 344.731 177.039L344.736 177.035C345.471 176.478 346.206 175.92 346.942 175.363C348.407 174.252 349.739 174.566 351.147 175.558C369.287 188.332 386.676 201.953 400.647 219.416C406.636 226.9 411.855 234.922 413.95 244.372C415.819 252.801 413.319 260.332 407.344 266.675C401.92 272.433 395.149 275.852 387.71 278.093C374.382 282.11 360.786 281.876 347.09 280.731C330.49 279.343 314.21 276.119 298.183 271.856C271.742 264.824 245.809 256.289 220.572 245.812C219.863 238.956 214.068 233.61 207.025 233.61C199.503 233.61 193.405 239.708 193.405 247.231C193.405 254.753 199.503 260.851 207.025 260.851C211.598 260.851 215.645 258.597 218.115 255.14C230.534 260.182 243.124 264.802 255.819 269.16C256.022 269.23 256.23 269.287 256.468 269.353L256.468 269.353C256.714 269.421 256.991 269.497 257.329 269.606C259.322 270.23 261.297 270.855 263.26 271.478L263.285 271.485L263.288 271.486ZM25.7916 205.39C37.0746 194.446 49.3291 185.066 61.896 176.071L61.9555 176.028L62.0213 175.98L62.1548 175.883L62.1585 175.881C63.3173 175.038 64.4415 174.221 65.9936 175.394C68.4083 177.218 70.8354 179.025 73.2625 180.833C75.6642 182.622 78.0659 184.411 80.4556 186.215C80.8555 186.517 81.1722 186.929 81.4924 187.345C81.6419 187.54 81.7921 187.735 81.9519 187.921C81.3616 189.469 80.1464 190.245 78.9559 191.004C78.6901 191.174 78.4255 191.343 78.1693 191.519C63.7151 201.476 49.7681 212.062 37.6021 224.787C32.3037 230.329 27.1522 236.035 23.9288 243.141L23.8401 243.336C23.3268 244.466 22.8077 245.609 22.4778 246.797C21.308 251.009 22.4414 253.485 26.4399 255.299C30.9612 257.349 35.7719 258.174 40.6955 258.698C54.4245 260.16 68.0061 258.455 81.4942 256.478C91.0644 255.076 100.611 253.168 109.966 250.535C111.85 250.004 113.766 249.576 115.682 249.166C117.424 248.792 118.666 249.249 119.073 251.231C119.729 254.425 120.409 257.613 121.088 260.802L121.089 260.807C121.613 263.264 122.137 265.722 122.65 268.182C122.968 269.706 122.019 270.476 120.724 270.725C116.513 271.533 112.331 272.471 108.148 273.409L108.147 273.409L108.146 273.409L108.145 273.409L108.144 273.41C103.616 274.425 99.087 275.441 94.5177 276.293C81.7116 278.68 68.8197 280.071 55.8677 281.093C49.2931 281.612 42.7195 280.965 36.2116 280.212C28.9338 279.371 21.7689 277.73 15.2583 274.128C0.739289 266.095 -1.50222 254.576 0.754799 243.07C2.70163 233.145 8.5033 224.865 14.918 217.118C18.2768 213.062 21.9234 209.285 25.7916 205.39Z" fill="url(#paint0_diamond_243_911)"/>
<path fill-rule="evenodd" clip-rule="evenodd" d="M99.8199 157.338C96.3318 157.338 93.9156 160.819 95.1359 164.087L113.781 214.016C114.511 215.97 116.378 217.266 118.465 217.266H198.514L203.106 210.585C203.901 209.429 205.608 209.429 206.403 210.585L210.995 217.266H300.189C302.553 217.266 304.594 215.611 305.082 213.299L315.62 163.37C316.276 160.262 313.905 157.338 310.728 157.338H99.8199Z" fill="url(#paint1_linear_243_911)"/>
<path d="M117.549 198.725V199.225H118.049H118.394H118.894V198.725V190.081H131.144V198.725V199.225H131.644H131.989H132.489V198.725V180.092V179.592H131.989H131.644H131.144V180.092V188.736H118.894V180.092V179.592H118.394H118.049H117.549V180.092V198.725ZM144.127 179.592H143.627V180.092V194.481C143.627 195.989 144.148 197.252 145.202 198.229L145.201 198.229L145.211 198.237C145.778 198.737 146.564 199.083 147.524 199.306C148.488 199.531 149.659 199.639 151.028 199.639C152.397 199.639 153.567 199.531 154.531 199.306C155.492 199.083 156.277 198.737 156.844 198.237L156.844 198.237L156.849 198.233C157.927 197.258 158.463 195.993 158.463 194.481V180.092V179.592H157.963H157.618H157.118V180.092V194.481C157.118 195.632 156.715 196.538 155.911 197.242C155.535 197.56 154.957 197.827 154.135 198.013C153.315 198.197 152.282 198.294 151.028 198.294C149.773 198.294 148.74 198.197 147.92 198.013C147.1 197.828 146.523 197.562 146.146 197.244C145.366 196.541 144.972 195.635 144.972 194.481V180.092V179.592H144.472H144.127ZM179.734 186.822L179.734 186.823C179.34 187.426 179.079 187.774 178.936 187.916C178.889 187.964 178.75 188.046 178.393 188.046C178.036 188.046 177.897 187.964 177.849 187.916C177.707 187.774 177.446 187.426 177.052 186.823L177.051 186.822L172.847 180.413C172.677 180.133 172.448 179.895 172.142 179.772C171.903 179.656 171.651 179.592 171.388 179.592H170.802C170.394 179.592 170.012 179.723 169.735 180.039L169.735 180.039L169.732 180.043C169.477 180.341 169.405 180.754 169.405 181.162V198.725V199.225H169.905H170.25H170.75V198.725V181.162C170.75 181.064 170.765 180.992 170.785 180.938C170.79 180.937 170.796 180.937 170.802 180.937H171.319C171.435 180.937 171.507 180.954 171.548 180.971L171.561 180.976L171.563 180.977C171.567 180.98 171.575 180.986 171.587 180.998C171.619 181.03 171.664 181.086 171.719 181.178L171.725 181.187L171.731 181.197L175.94 187.545L175.941 187.547C176.355 188.168 176.683 188.621 176.917 188.88L176.926 188.89L176.935 188.899C177.3 189.264 177.826 189.391 178.393 189.391C178.948 189.391 179.477 189.269 179.825 188.891C180.092 188.621 180.434 188.162 180.845 187.547L180.845 187.545L185.055 181.197L185.061 181.187L185.067 181.178C185.125 181.08 185.172 181.018 185.205 180.982C185.213 180.974 185.219 180.967 185.224 180.963C185.267 180.95 185.333 180.937 185.432 180.937H185.949C185.957 180.937 185.964 180.938 185.969 180.938L185.982 180.956C186.013 181.003 186.036 181.065 186.036 181.162V198.725V199.225H186.536H186.881H187.381V198.725V181.162C187.381 180.752 187.296 180.337 187.018 180.04C186.751 179.707 186.351 179.592 185.949 179.592H185.363C185.097 179.592 184.841 179.658 184.599 179.777C184.313 179.905 184.1 180.145 183.939 180.413L179.734 186.822Z" fill="#F5FFFB" stroke="white"/>
<path d="M253.675 180.027L253.685 180.038L265.509 193.34V180.094V179.594H266.009H266.354H266.854V180.094V198.726V199.226H266.354H266.009H265.509V198.726V195.363L253.224 181.584V198.726V199.226H252.724H252.379H251.879V198.726V180.474C251.879 180.214 251.974 179.946 252.217 179.763L252.217 179.763C252.374 179.646 252.569 179.56 252.793 179.56C252.973 179.56 253.152 179.606 253.312 179.713L253.675 180.027ZM253.675 180.027L253.665 180.017M253.675 180.027L253.665 180.017M252.779 180.512L252.779 180.512L252.779 180.512ZM252.779 180.512L252.75 180.474L252.779 180.512ZM253.665 180.017C253.544 179.896 253.424 179.787 253.312 179.713L253.665 180.017ZM289.555 180.094V179.594H289.055H281.395C280.24 179.594 279.259 179.923 278.505 180.621C277.75 181.298 277.376 182.184 277.376 183.234V186.063C277.376 187.041 277.56 187.87 278.074 188.384L278.085 188.395L278.097 188.405C278.565 188.818 279.144 189.081 279.814 189.211C279.815 189.211 279.816 189.211 279.817 189.211L287.087 190.693C287.088 190.693 287.089 190.693 287.089 190.693C287.648 190.813 288.052 191.044 288.336 191.364L288.346 191.375L288.356 191.385C288.597 191.626 288.797 192.181 288.797 193.24V195.241C288.797 196.03 288.527 196.653 287.991 197.152C287.484 197.621 286.777 197.881 285.812 197.881H277.22H276.72V198.381V198.726V199.226H277.22H285.812C287.079 199.226 288.144 198.876 288.948 198.126L288.948 198.126L288.954 198.12C289.747 197.353 290.142 196.381 290.142 195.241V193.24C290.142 192.015 289.913 191.014 289.31 190.407C288.795 189.867 288.137 189.524 287.36 189.369C287.359 189.369 287.359 189.369 287.359 189.368L280.08 187.885L280.073 187.884L280.066 187.882C279.62 187.805 279.294 187.637 279.057 187.4C278.879 187.222 278.721 186.83 278.721 186.063V183.234C278.721 182.564 278.953 182.032 279.422 181.601C279.884 181.175 280.523 180.939 281.395 180.939H289.055H289.555V180.439V180.094Z" fill="#F5FFFB" stroke="white"/>
<path d="M212.532 181.535L208.186 204.554L197.945 204.554L207.995 179.119C209.055 176.448 211.005 175.431 214.016 175.431C216.984 175.431 218.934 176.448 219.952 179.119L229.62 204.554H219.952L215.372 181.535C215.118 180.857 214.652 180.56 213.973 180.56C213.295 180.56 212.828 180.857 212.532 181.535Z" fill="url(#paint2_angular_243_911)"/>
<path d="M230.502 182.171H234.966L236.082 204.554L229.375 204.554L230.502 182.171ZM230.429 173.682H234.966V178.896H230.429V173.682Z" fill="url(#paint3_angular_243_911)"/>
<circle cx="207.025" cy="247.231" r="7.26406" fill="url(#paint4_radial_243_911)"/>
<g style="mix-blend-mode:luminosity">
<path d="M199.323 303.879L198.904 304.542L193.822 296.456H194.651L199.323 303.879ZM202.786 309.156L203.195 308.492L205.79 312.609H204.961L202.786 309.156ZM200.152 302.572L199.733 303.225L195.48 296.456H196.299L200.152 302.572ZM203.615 307.839L204.025 307.176L207.448 312.609H206.619L203.615 307.839ZM200.981 301.245L200.572 301.899L197.138 296.456H197.967L200.981 301.245ZM204.454 306.512L204.863 305.849L209.116 312.609H208.287L204.454 306.512ZM201.81 299.928L201.401 300.592L198.796 296.456H199.626L201.81 299.928ZM205.273 305.196L205.683 304.532L210.774 312.609H209.945L205.273 305.196ZM209.458 296.456H210.287L200.123 312.609H199.294L209.458 296.456ZM207.809 296.456H208.628L198.465 312.609H197.636L207.809 296.456ZM206.141 296.456H206.97L196.797 312.609H195.968L206.141 296.456ZM204.483 296.456H205.312L195.139 312.609H194.31L204.483 296.456Z" fill="#101C3C" fill-opacity="0.68"/>
<path d="M216.159 296.456H216.861V312.609H216.159V296.456ZM214.754 296.456H215.456V312.609H214.754V296.456ZM213.349 296.456H214.052V312.609H213.349V296.456ZM211.945 296.456H212.647V312.609H211.945V296.456Z" fill="#101C3C" fill-opacity="0.68"/>
<path d="M187.583 319.855V321.761H190.144V322.971H187.583V324.987H190.471V326.229H186.058V318.612H190.471V319.855H187.583Z" fill="#101C3C" fill-opacity="0.68"/>
<path d="M194.515 318.623C195.314 318.623 196.015 318.779 196.618 319.092C197.229 319.404 197.697 319.851 198.024 320.432C198.358 321.006 198.525 321.674 198.525 322.437C198.525 323.2 198.358 323.868 198.024 324.442C197.697 325.008 197.229 325.448 196.618 325.76C196.015 326.073 195.314 326.229 194.515 326.229H191.857V318.623H194.515ZM194.461 324.932C195.26 324.932 195.877 324.714 196.313 324.278C196.749 323.843 196.967 323.229 196.967 322.437C196.967 321.645 196.749 321.028 196.313 320.585C195.877 320.134 195.26 319.909 194.461 319.909H193.382V324.932H194.461Z" fill="#101C3C" fill-opacity="0.68"/>
<path d="M201.193 318.623V326.229H199.667V318.623H201.193Z" fill="#101C3C" fill-opacity="0.68"/>
<path d="M207.875 318.623V319.855H205.849V326.229H204.323V319.855H202.297V318.623H207.875Z" fill="#101C3C" fill-opacity="0.68"/>
<path d="M210.514 318.623V326.229H208.988V318.623H210.514Z" fill="#101C3C" fill-opacity="0.68"/>
<path d="M215.551 326.305C214.839 326.305 214.186 326.138 213.59 325.804C212.994 325.47 212.522 325.008 212.174 324.42C211.825 323.824 211.65 323.152 211.65 322.404C211.65 321.663 211.825 320.999 212.174 320.41C212.522 319.815 212.994 319.35 213.59 319.016C214.186 318.681 214.839 318.514 215.551 318.514C216.27 318.514 216.924 318.681 217.513 319.016C218.108 319.35 218.577 319.815 218.918 320.41C219.267 320.999 219.441 321.663 219.441 322.404C219.441 323.152 219.267 323.824 218.918 324.42C218.577 325.008 218.108 325.47 217.513 325.804C216.917 326.138 216.263 326.305 215.551 326.305ZM215.551 324.943C216.009 324.943 216.412 324.841 216.761 324.638C217.109 324.427 217.382 324.129 217.578 323.744C217.774 323.359 217.872 322.913 217.872 322.404C217.872 321.896 217.774 321.453 217.578 321.075C217.382 320.69 217.109 320.396 216.761 320.192C216.412 319.989 216.009 319.887 215.551 319.887C215.094 319.887 214.687 319.989 214.331 320.192C213.982 320.396 213.71 320.69 213.514 321.075C213.318 321.453 213.22 321.896 213.22 322.404C213.22 322.913 213.318 323.359 213.514 323.744C213.71 324.129 213.982 324.427 214.331 324.638C214.687 324.841 215.094 324.943 215.551 324.943Z" fill="#101C3C" fill-opacity="0.68"/>
<path d="M227.081 326.229H225.556L222.102 321.01V326.229H220.576V318.612H222.102L225.556 323.843V318.612H227.081V326.229Z" fill="#101C3C" fill-opacity="0.68"/>
</g>
<path d="M195.69 102.564L188.326 97.2578C180.755 91.8031 176.969 89.0758 177.171 85.453C177.374 81.8296 181.439 79.5406 189.57 74.9615L227.099 53.8273C232.241 50.932 234.811 49.484 235.699 50.4765C236.586 51.4686 234.861 53.8624 231.412 58.65L214.256 82.4616C213.343 83.7286 212.887 84.3623 212.997 85.0393C213.107 85.7162 213.741 86.1728 215.008 87.0856L222.372 92.3917C229.943 97.8465 233.728 100.574 233.526 104.196C233.324 107.82 229.259 110.109 221.129 114.688L183.599 135.822C178.457 138.718 175.887 140.166 174.999 139.173C174.112 138.181 175.837 135.787 179.286 131L196.442 107.188C197.354 105.921 197.811 105.287 197.701 104.61C197.591 103.933 196.957 103.477 195.69 102.564Z" fill="url(#paint5_angular_243_911)"/>
<defs>
<radialGradient id="paint0_diamond_243_911" cx="0" cy="0" r="1" gradientUnits="userSpaceOnUse" gradientTransform="translate(207.238 182.761) rotate(90) scale(316.441 373.496)">
<stop stop-color="#E9EEFF"/>
<stop offset="1" stop-color="#437ABB"/>
</radialGradient>
<linearGradient id="paint1_linear_243_911" x1="204.803" y1="157.338" x2="205.257" y2="227.254" gradientUnits="userSpaceOnUse">
<stop stop-color="#3D629A"/>
<stop offset="1" stop-color="#539FBF" stop-opacity="0.64"/>
</linearGradient>
<radialGradient id="paint2_angular_243_911" cx="0" cy="0" r="1" gradientUnits="userSpaceOnUse" gradientTransform="translate(217.112 188.936) rotate(93.4574) scale(166.523 37.0144)">
<stop stop-color="#A7FFDC"/>
<stop offset="1" stop-color="#39BE8A"/>
</radialGradient>
<radialGradient id="paint3_angular_243_911" cx="0" cy="0" r="1" gradientUnits="userSpaceOnUse" gradientTransform="translate(217.112 188.936) rotate(93.4574) scale(166.523 37.0144)">
<stop stop-color="#A7FFDC"/>
<stop offset="1" stop-color="#39BE8A"/>
</radialGradient>
<radialGradient id="paint4_radial_243_911" cx="0" cy="0" r="1" gradientUnits="userSpaceOnUse" gradientTransform="translate(207.063 247.146) rotate(90.0284) scale(75.9043 13.6753)">
<stop stop-color="#A7FFDC"/>
<stop offset="1" stop-color="#058D57"/>
</radialGradient>
<radialGradient id="paint5_angular_243_911" cx="0" cy="0" r="1" gradientUnits="userSpaceOnUse" gradientTransform="translate(205.842 94.3988) rotate(127.289) scale(578.933 56.5815)">
<stop stop-color="#60FFC1"/>
<stop offset="1" stop-color="#058D57"/>
</radialGradient>
</defs>
</svg>
