<svg width="288" height="244" viewBox="0 0 288 244" fill="none" xmlns="http://www.w3.org/2000/svg">
<path fill-rule="evenodd" clip-rule="evenodd" d="M182.901 188.6L182.908 188.602C186.911 189.871 190.843 191.117 194.811 192.236C197.044 192.866 197.771 193.983 197.244 196.177C196.806 197.997 195.98 199.59 194.835 201.038C192.63 203.828 190.432 206.623 188.235 209.419L188.226 209.429L188.223 209.433C182.902 216.201 177.581 222.969 172.157 229.654C166.217 236.975 158.65 242.082 149.256 243.573C139.388 245.14 130.474 242.326 122.536 236.229C118.422 233.069 115.295 229.059 112.168 225.048L112.167 225.047L112.167 225.047L112.166 225.047L112.165 225.045L112.165 225.045C111.465 224.147 110.764 223.248 110.052 222.359C106.571 218.011 103.132 213.63 99.6925 209.248L99.6915 209.246L99.6905 209.245L99.6895 209.244L99.6886 209.243L99.6876 209.241C97.4445 206.383 95.2014 203.525 92.9465 200.677C91.6914 199.091 90.971 197.388 90.604 195.355C90.1026 192.577 89.5017 189.817 88.9008 187.057L88.9007 187.056L88.9006 187.056L88.9005 187.055L88.9004 187.055L88.9003 187.054C88.312 184.353 87.7238 181.651 87.2289 178.932C86.525 175.065 85.7706 171.214 84.9282 167.377C84.7 166.337 84.2375 165.784 83.1136 165.744C74.7725 165.45 72.5776 160.097 71.1222 154.744C69.9011 150.253 68.5188 145.814 67.1365 141.375C66.5663 139.544 65.9961 137.713 65.4372 135.879C63.8426 130.644 62.2815 125.399 60.7205 120.154C60.3413 118.88 59.962 117.605 59.5823 116.331C59.388 115.679 59.2086 115.023 59.0292 114.366L59.0292 114.366L59.0291 114.366L59.0291 114.366L59.0291 114.366L59.029 114.366C58.7902 113.492 58.5514 112.618 58.2776 111.755C57.3834 108.938 58.5424 104.959 60.8578 103.072C63.8542 100.628 68.786 99.5361 70.9665 101.663C73.4311 104.067 75.2385 103.052 77.3258 101.881C77.4554 101.808 77.5861 101.734 77.7182 101.661C91.1624 94.2061 105.123 87.8211 119.276 81.8569C122.509 80.4947 125.795 79.2606 129.082 78.0263C131.483 77.1248 133.884 76.2232 136.264 75.2715C137.1 74.9372 137.798 74.9236 138.444 75.1014C137.183 72.9903 136.442 70.5317 136.401 67.9035C135.809 68.4936 135.077 68.8904 134.194 69.1971C115.202 75.7987 96.9954 84.1859 79.1494 93.3894C77.6507 94.1623 76.1737 94.9772 74.6605 95.8121L74.6584 95.8132L74.6583 95.8133L74.6582 95.8134C73.9451 96.2068 73.224 96.6047 72.4887 97.0047C71.6436 95.4127 71.1744 94.0503 70.9759 92.5193C70.6958 90.3583 70.3414 88.2042 69.9875 86.0524C69.6425 83.9554 69.2979 81.8605 69.0226 79.7632C68.3754 74.8328 67.772 69.7948 68.5345 64.7903C68.7814 63.1691 68.6285 62.2311 66.7865 61.8611C62.6498 61.0302 58.4827 60.462 54.3068 59.8927C53.8229 59.8268 53.3389 59.7608 52.8549 59.6944C45.2895 58.6565 37.7164 58.2994 30.1093 58.4573C26.4571 58.5332 22.8495 59.1631 19.4547 60.5785C15.7487 62.1235 14.9711 64.1345 16.4468 67.8426C18.3066 72.516 21.3509 76.3973 24.6905 80.0684C33.1939 89.4158 43.1658 97.0306 53.4626 104.248C54.7693 105.164 55.4069 105.871 54.9363 107.723C54.2809 110.302 55.1141 112.761 55.9405 115.199L55.9406 115.199C56.1681 115.87 56.3951 116.54 56.5903 117.21C57.0774 118.883 57.6193 120.539 58.1612 122.195L58.1613 122.195L58.1613 122.196L58.1614 122.196L58.1615 122.196L58.1616 122.196C58.4896 123.199 58.8176 124.202 59.1335 125.208C59.2967 125.728 59.2817 126.264 58.7796 126.7C58.1242 126.995 57.6614 126.612 57.2168 126.245L57.2167 126.245C57.1438 126.184 57.0715 126.125 56.9989 126.068C53.1676 123.094 49.2601 120.216 45.3526 117.339L45.3523 117.339L45.352 117.338L45.3517 117.338L45.3515 117.338L45.3512 117.338C36.8799 111.099 28.4087 104.86 20.7141 97.64C13.1957 90.5851 6.24525 83.094 2.23119 73.3303C-3.1501 60.2409 3.73426 49.3751 16.0422 45.5574C26.5854 42.2872 37.3477 42.8795 48.1456 43.7587C52.1827 44.0875 56.1673 44.7203 60.1526 45.3532C61.6272 45.5874 63.1019 45.8216 64.5793 46.0404C64.769 46.0685 64.9593 46.0963 65.15 46.1241L65.15 46.1242C66.8389 46.371 68.5586 46.6224 70.133 47.1061C72.0376 47.6912 72.6859 47.0119 73.1475 45.5513C74.9696 39.7863 77.7699 34.5059 80.9626 29.4008C86.8152 20.0426 95.1904 13.7396 105.076 9.16159C112.474 5.73584 120.106 3.17766 128.113 1.53261C137.643 -0.425166 147.227 -0.386422 156.697 0.965716C170.231 2.89812 182.951 7.51815 194.004 15.771C204.006 23.2396 211.042 33.0088 214.886 44.9668C215.002 45.3274 215.166 45.6745 215.328 46.0179C215.434 46.2406 215.551 46.4575 215.7 46.7334L215.701 46.7342C215.776 46.873 215.859 47.0268 215.953 47.2037C217.279 46.9635 218.602 46.7122 219.922 46.4612L219.925 46.4608C222.915 45.8924 225.898 45.3256 228.9 44.8927C233.707 44.1995 238.54 43.5177 243.383 43.2741C248.93 42.9953 254.519 42.9137 260.056 43.2714C267.554 43.7558 274.797 45.4241 280.853 50.3119C284.029 52.8752 285.906 56.2151 286.997 60.1745C289.05 67.6263 286.05 73.8769 282.448 79.885C276.739 89.4079 268.712 96.8944 260.227 103.884C253.81 109.169 247.061 114.015 240.312 118.86L240.311 118.86L240.311 118.861C237.357 120.981 234.404 123.101 231.479 125.258C231.361 125.345 231.244 125.44 231.127 125.535C230.608 125.955 230.069 126.392 229.31 126.265C228.67 125.763 228.853 125.249 229.046 124.71C229.083 124.607 229.12 124.503 229.152 124.397C230.467 120.051 231.778 115.702 233.026 111.336C233.34 110.239 233.421 109.043 232.844 107.992C231.974 106.409 232.658 105.503 233.961 104.603C243.051 98.3227 251.791 91.6016 259.629 83.7827C263.407 80.0145 266.897 76.0018 269.676 71.414C270.711 69.7066 271.474 67.9101 271.907 65.959C272.411 63.6908 271.628 62.1553 269.522 61.1439C265.681 59.2987 261.58 58.5963 257.397 58.4792L257.085 58.4704C250.723 58.2919 244.321 58.1122 238.028 59.084C236.584 59.3069 235.136 59.5103 233.688 59.7138C229.365 60.3211 225.037 60.9291 220.802 62.0582C219.688 62.355 219.349 62.7907 219.46 63.9503C220.15 71.1909 219.197 78.2942 217.778 85.3936C217.034 89.1193 216.486 92.8842 215.926 96.7361C215.673 98.4748 215.417 100.231 215.14 102.01C215.921 101.858 216.671 101.644 217.413 101.433L217.414 101.432C218.752 101.051 220.066 100.677 221.495 100.681C226.712 100.697 231.221 107.414 229.682 111.991C227.343 118.947 225.287 125.997 223.232 133.048L223.231 133.05C222.363 136.029 221.495 139.007 220.606 141.977C219.131 146.902 217.649 151.824 216.153 156.743C214.381 162.572 211.229 165.093 204.99 165.721C202.872 165.934 202.747 167.382 202.627 168.779C202.587 169.24 202.548 169.696 202.437 170.1C202.032 171.582 203.128 172.116 204.521 172.44C206.694 172.946 208.855 173.505 211.015 174.064C213.396 174.681 215.778 175.297 218.176 175.842C219.592 176.164 221.034 176.382 222.475 176.601L222.475 176.601L222.475 176.601L222.475 176.601L222.475 176.601L222.476 176.601L222.477 176.601C224.107 176.848 225.737 177.096 227.331 177.492C230.455 178.27 233.634 178.61 236.809 178.949L236.809 178.949L236.811 178.949L236.813 178.949L236.814 178.949L236.816 178.949L236.817 178.95C238.076 179.084 239.335 179.218 240.588 179.38C245.163 179.97 249.802 179.892 254.433 179.814H254.433L255.099 179.802C255.427 179.797 255.755 179.792 256.082 179.787C260.472 179.722 264.69 179.114 268.735 177.428C271.796 176.152 272.559 174.718 271.733 171.526C270.7 167.532 268.328 164.269 265.752 161.144C256.899 150.407 245.935 142.084 234.695 134.081C234.103 133.659 233.498 133.256 232.893 132.853L232.893 132.853L232.892 132.853L232.892 132.853L232.892 132.852L232.89 132.851C232.356 132.496 231.821 132.14 231.296 131.771C230.192 130.997 229.951 130.18 231.184 129.257C233.96 127.178 236.724 125.082 239.488 122.987L241.021 121.825C242.039 121.053 242.964 121.272 243.942 121.96C256.544 130.834 268.624 140.297 278.33 152.428C282.49 157.628 286.116 163.201 287.572 169.765C288.87 175.621 287.133 180.853 282.982 185.259C279.214 189.26 274.51 191.635 269.343 193.192C260.083 195.982 250.638 195.82 241.124 195.024C229.592 194.06 218.282 191.82 207.148 188.859C188.779 183.974 170.764 178.044 153.232 170.766C152.739 166.003 148.714 162.289 143.821 162.289C138.595 162.289 134.359 166.526 134.359 171.751C134.359 176.977 138.595 181.213 143.821 181.213C146.998 181.213 149.809 179.648 151.525 177.246C160.152 180.749 168.898 183.959 177.718 186.986C177.859 187.034 178.003 187.074 178.168 187.12C178.339 187.167 178.532 187.22 178.767 187.296C180.148 187.728 181.516 188.161 182.876 188.592L182.89 188.597L182.901 188.6ZM17.9175 142.685C25.7558 135.082 34.269 128.566 42.9992 122.316C43.034 122.291 43.0688 122.266 43.1034 122.241L43.1797 122.186L43.1816 122.185C43.9866 121.599 44.7676 121.032 45.8458 121.846C47.5226 123.113 49.208 124.368 50.8934 125.623L50.8955 125.625C52.564 126.868 54.2325 128.11 55.8926 129.364C56.1704 129.574 56.3904 129.86 56.6129 130.149C56.7167 130.284 56.8211 130.42 56.9321 130.549C56.522 131.625 55.6778 132.163 54.8508 132.691C54.6661 132.809 54.4823 132.926 54.3043 133.048C44.263 139.966 34.5739 147.319 26.1222 156.16C22.4414 160.01 18.8627 163.974 16.6234 168.91L16.5617 169.046L16.5616 169.046C16.2051 169.831 15.8445 170.625 15.6153 171.45C14.8027 174.376 15.5901 176.096 18.3678 177.356C21.5088 178.781 24.8508 179.354 28.2712 179.718C37.8088 180.733 47.2439 179.549 56.6141 178.176C63.2626 177.201 69.8944 175.876 76.3935 174.047C77.7027 173.678 79.0336 173.381 80.3642 173.096C81.5748 172.836 82.4378 173.154 82.7204 174.531C83.1754 176.748 83.6474 178.961 84.1193 181.175L84.1198 181.177L84.1209 181.183C84.485 182.89 84.849 184.597 85.2052 186.306C85.426 187.365 84.767 187.9 83.8671 188.073C80.9414 188.634 78.0361 189.286 75.13 189.937L75.1279 189.938C71.9823 190.643 68.8358 191.349 65.6616 191.941C56.7651 193.6 47.8091 194.565 38.8114 195.276C34.244 195.636 29.6773 195.187 25.1562 194.664C20.1003 194.079 15.1229 192.94 10.6 190.437C0.513585 184.857 -1.04359 176.854 0.52436 168.861C1.87682 161.966 5.90726 156.214 10.3636 150.832C12.6969 148.014 15.2302 145.39 17.9175 142.685Z" fill="url(#paint0_diamond_290_224)"/>
<path fill-rule="evenodd" clip-rule="evenodd" d="M71.0529 109.322C67.7063 109.312 65.295 112.529 66.2433 115.739L75.5835 147.351C76.2114 149.476 78.1629 150.935 80.3786 150.935H137.91L140.597 147.025C141.391 145.869 143.099 145.869 143.893 147.025L146.58 150.935H207.516C209.783 150.935 211.766 149.41 212.348 147.219L220.64 116.028C221.482 112.86 219.1 109.753 215.823 109.743L71.0529 109.322Z" fill="url(#paint1_linear_290_224)"/>
<path d="M81.5098 138.055V138.555H82.0098H82.2495H82.7495V138.055V132.203H90.954V138.055V138.555H91.454H91.6937H92.1937V138.055V125.111V124.611H91.6937H91.454H90.954V125.111V130.963H82.7495V125.111V124.611H82.2495H82.0098H81.5098V125.111V138.055ZM100.126 124.611H99.6262V125.111V135.106C99.6262 136.193 100.004 137.113 100.769 137.822L100.769 137.822L100.778 137.831C101.198 138.2 101.77 138.449 102.452 138.608C103.136 138.767 103.962 138.842 104.92 138.842C105.878 138.842 106.704 138.767 107.389 138.608C108.07 138.449 108.642 138.2 109.062 137.831L109.062 137.831L109.067 137.826C109.85 137.118 110.238 136.197 110.238 135.106V125.111V124.611H109.738H109.498H108.998V125.111V135.106C108.998 135.865 108.736 136.451 108.213 136.909C107.977 137.108 107.602 137.286 107.046 137.411C106.49 137.536 105.785 137.603 104.92 137.603C104.056 137.603 103.35 137.536 102.795 137.411C102.24 137.286 101.865 137.109 101.629 136.911C101.123 136.454 100.866 135.868 100.866 135.106V125.111V124.611H100.366H100.126ZM124.735 129.703L124.735 129.703C124.461 130.122 124.288 130.351 124.201 130.437C124.201 130.437 124.145 130.484 123.931 130.484C123.717 130.484 123.66 130.437 123.66 130.437C123.574 130.351 123.4 130.122 123.127 129.703L123.126 129.703L120.207 125.252C120.079 125.041 119.899 124.85 119.65 124.749C119.467 124.661 119.271 124.611 119.065 124.611H118.657C118.34 124.611 118.029 124.713 117.802 124.973L117.802 124.973L117.798 124.977C117.585 125.226 117.534 125.559 117.534 125.854V138.055V138.555H118.034H118.274H118.774V138.055V125.854C118.774 125.853 118.774 125.852 118.774 125.851H119.017C119.061 125.851 119.089 125.855 119.105 125.858C119.117 125.873 119.137 125.9 119.163 125.943L119.169 125.953L119.175 125.962L122.1 130.373L122.101 130.374C122.388 130.805 122.621 131.128 122.792 131.318L122.801 131.328L122.81 131.337C123.105 131.631 123.518 131.723 123.931 131.723C124.332 131.723 124.752 131.636 125.036 131.329C125.232 131.13 125.477 130.801 125.761 130.374L125.762 130.373L128.686 125.962L128.692 125.953L128.698 125.943C128.723 125.902 128.743 125.873 128.758 125.854C128.773 125.852 128.794 125.851 128.821 125.851H129.088C129.088 125.852 129.088 125.853 129.088 125.854V138.055V138.555H129.588H129.827H130.327V138.055V125.854C130.327 125.554 130.267 125.222 130.038 124.975C129.814 124.698 129.484 124.611 129.18 124.611H128.773C128.563 124.611 128.363 124.663 128.177 124.754C127.942 124.86 127.775 125.054 127.654 125.252L124.735 129.703ZM118.647 125.851C118.647 125.851 118.647 125.851 118.648 125.851L118.647 125.851ZM129.191 125.851C129.191 125.851 129.19 125.851 129.19 125.851L129.191 125.851Z" fill="#F5FFFB" stroke="white"/>
<path d="M176.339 124.96L176.349 124.971L184.296 133.912V125.112V124.612H184.796H185.036H185.536V125.112V138.056V138.556H185.036H184.796H184.296V138.056V135.777L176.068 126.547V138.056V138.556H175.568H175.328H174.828V138.056V125.376C174.828 125.158 174.908 124.922 175.124 124.76L175.124 124.76C175.253 124.663 175.419 124.588 175.616 124.588C175.767 124.588 175.922 124.627 176.061 124.72L176.339 124.96ZM176.339 124.96L176.329 124.95M176.339 124.96L176.329 124.95M176.329 124.95C176.243 124.865 176.151 124.78 176.061 124.72L176.329 124.95ZM201.307 125.112V124.612H200.807H195.485C194.653 124.612 193.933 124.849 193.375 125.365C192.816 125.866 192.54 126.524 192.54 127.293V129.259C192.54 129.948 192.669 130.577 193.07 130.979L193.081 130.99L193.093 131C193.442 131.307 193.87 131.501 194.357 131.595L199.408 132.624C199.408 132.624 199.409 132.624 199.41 132.625C199.772 132.703 200.021 132.849 200.193 133.043L200.203 133.054L200.213 133.064C200.335 133.185 200.475 133.515 200.475 134.244V135.635C200.475 136.142 200.304 136.534 199.964 136.85C199.646 137.144 199.196 137.316 198.554 137.316H192.585H192.085V137.816V138.056V138.556H192.585H198.554C199.463 138.556 200.243 138.304 200.836 137.75L200.836 137.75L200.843 137.744C201.425 137.181 201.714 136.465 201.714 135.635V134.244C201.714 133.384 201.556 132.636 201.093 132.17C200.712 131.77 200.226 131.519 199.659 131.405C199.659 131.405 199.659 131.405 199.658 131.405L194.602 130.375L194.595 130.373L194.588 130.372C194.304 130.323 194.108 130.218 193.969 130.08C193.889 130 193.78 129.779 193.78 129.259V127.293C193.78 126.869 193.925 126.541 194.218 126.271C194.505 126.007 194.909 125.852 195.485 125.852H200.807H201.307V125.352V125.112Z" fill="#F5FFFB" stroke="white"/>
<path d="M147.647 126.113L144.628 142.104L137.514 142.104L144.495 124.434C145.231 122.579 146.586 121.872 148.678 121.872C150.74 121.872 152.095 122.579 152.802 124.434L159.518 142.104H152.802L149.62 126.113C149.444 125.642 149.12 125.436 148.648 125.436C148.177 125.436 147.853 125.642 147.647 126.113Z" fill="url(#paint2_angular_290_224)"/>
<path d="M160.131 126.555H163.232L164.007 142.104L159.348 142.104L160.131 126.555ZM160.08 120.657H163.232V124.28H160.08V120.657Z" fill="url(#paint3_angular_290_224)"/>
<circle cx="143.822" cy="171.752" r="5.04635" fill="url(#paint4_radial_290_224)"/>
<g style="mix-blend-mode:luminosity">
<path d="M138.47 211.105L138.179 211.566L134.649 205.948H135.225L138.47 211.105ZM140.876 214.771L141.161 214.31L142.963 217.169H142.387L140.876 214.771ZM139.046 210.197L138.755 210.651L135.801 205.948H136.37L139.046 210.197ZM141.452 213.856L141.737 213.395L144.115 217.169H143.539L141.452 213.856ZM139.622 209.275L139.338 209.729L136.953 205.948H137.529L139.622 209.275ZM142.035 212.934L142.319 212.474L145.274 217.169H144.698L142.035 212.934ZM140.198 208.361L139.914 208.821L138.105 205.948H138.681L140.198 208.361ZM142.604 212.02L142.888 211.559L146.426 217.169H145.85L142.604 212.02ZM145.511 205.948H146.087L139.026 217.169H138.45L145.511 205.948ZM144.366 205.948H144.935L137.874 217.169H137.298L144.366 205.948ZM143.207 205.948H143.783L136.715 217.169H136.139L143.207 205.948ZM142.055 205.948H142.631L135.564 217.169H134.988L142.055 205.948Z" fill="#101C3C" fill-opacity="0.68"/>
<path d="M150.166 205.948H150.654V217.169H150.166V205.948ZM149.19 205.948H149.678V217.169H149.19V205.948ZM148.215 205.948H148.702V217.169H148.215V205.948ZM147.239 205.948H147.727V217.169H147.239V205.948Z" fill="#101C3C" fill-opacity="0.68"/>
<path d="M130.315 222.203V223.528H132.093V224.368H130.315V225.768H132.321V226.631H129.255V221.34H132.321V222.203H130.315Z" fill="#101C3C" fill-opacity="0.68"/>
<path d="M135.131 221.348C135.686 221.348 136.173 221.456 136.591 221.673C137.015 221.89 137.341 222.201 137.568 222.604C137.8 223.003 137.916 223.467 137.916 223.997C137.916 224.527 137.8 224.991 137.568 225.39C137.341 225.784 137.015 226.089 136.591 226.306C136.173 226.523 135.686 226.631 135.131 226.631H133.284V221.348H135.131ZM135.093 225.731C135.648 225.731 136.077 225.579 136.38 225.276C136.682 224.974 136.834 224.547 136.834 223.997C136.834 223.447 136.682 223.018 136.38 222.71C136.077 222.397 135.648 222.241 135.093 222.241H134.343V225.731H135.093Z" fill="#101C3C" fill-opacity="0.68"/>
<path d="M139.769 221.348V226.631H138.709V221.348H139.769Z" fill="#101C3C" fill-opacity="0.68"/>
<path d="M144.412 221.348V222.203H143.004V226.631H141.944V222.203H140.536V221.348H144.412Z" fill="#101C3C" fill-opacity="0.68"/>
<path d="M146.245 221.348V226.631H145.185V221.348H146.245Z" fill="#101C3C" fill-opacity="0.68"/>
<path d="M149.744 226.684C149.25 226.684 148.795 226.568 148.382 226.336C147.968 226.104 147.64 225.784 147.398 225.375C147.155 224.961 147.034 224.494 147.034 223.974C147.034 223.46 147.155 222.998 147.398 222.589C147.64 222.175 147.968 221.852 148.382 221.62C148.795 221.388 149.25 221.272 149.744 221.272C150.244 221.272 150.698 221.388 151.107 221.62C151.52 221.852 151.846 222.175 152.083 222.589C152.325 222.998 152.446 223.46 152.446 223.974C152.446 224.494 152.325 224.961 152.083 225.375C151.846 225.784 151.52 226.104 151.107 226.336C150.693 226.568 150.239 226.684 149.744 226.684ZM149.744 225.738C150.062 225.738 150.342 225.668 150.584 225.526C150.827 225.38 151.016 225.173 151.152 224.906C151.288 224.638 151.356 224.328 151.356 223.974C151.356 223.621 151.288 223.313 151.152 223.051C151.016 222.784 150.827 222.579 150.584 222.438C150.342 222.297 150.062 222.226 149.744 222.226C149.426 222.226 149.144 222.297 148.896 222.438C148.654 222.579 148.465 222.784 148.329 223.051C148.192 223.313 148.124 223.621 148.124 223.974C148.124 224.328 148.192 224.638 148.329 224.906C148.465 225.173 148.654 225.38 148.896 225.526C149.144 225.668 149.426 225.738 149.744 225.738Z" fill="#101C3C" fill-opacity="0.68"/>
<path d="M157.754 226.631H156.694L154.295 223.006V226.631H153.235V221.34H154.295L156.694 224.974V221.34H157.754V226.631Z" fill="#101C3C" fill-opacity="0.68"/>
</g>
<path d="M135.946 71.2513L130.83 67.5651C125.571 63.7758 122.941 61.8811 123.081 59.3643C123.222 56.8471 126.046 55.257 131.694 52.0759L157.766 37.394C161.338 35.3826 163.123 34.3766 163.74 35.0661C164.357 35.7553 163.158 37.4183 160.762 40.7442L148.844 57.2863C148.21 58.1664 147.893 58.6067 147.969 59.0769C148.046 59.5472 148.486 59.8644 149.366 60.4986L154.482 64.1847C159.742 67.9741 162.371 69.8687 162.231 72.3854C162.09 74.9025 159.267 76.4929 153.618 79.6736L127.546 94.3557C123.974 96.3673 122.189 97.3732 121.572 96.6838C120.956 95.9946 122.154 94.3314 124.55 91.0057L136.468 74.4636C137.102 73.5834 137.42 73.1432 137.343 72.6729C137.267 72.2026 136.826 71.8854 135.946 71.2513Z" fill="url(#paint5_angular_290_224)"/>
<defs>
<radialGradient id="paint0_diamond_290_224" cx="0" cy="0" r="1" gradientUnits="userSpaceOnUse" gradientTransform="translate(143.969 126.964) rotate(90) scale(219.832 259.468)">
<stop stop-color="#E9EEFF"/>
<stop offset="1" stop-color="#437ABB"/>
</radialGradient>
<linearGradient id="paint1_linear_290_224" x1="143.094" y1="109.322" x2="143.406" y2="157.87" gradientUnits="userSpaceOnUse">
<stop stop-color="#3D629A"/>
<stop offset="1" stop-color="#539FBF" stop-opacity="0.64"/>
</linearGradient>
<radialGradient id="paint2_angular_290_224" cx="0" cy="0" r="1" gradientUnits="userSpaceOnUse" gradientTransform="translate(150.829 131.254) rotate(93.4574) scale(115.684 25.714)">
<stop stop-color="#A7FFDC"/>
<stop offset="1" stop-color="#39BE8A"/>
</radialGradient>
<radialGradient id="paint3_angular_290_224" cx="0" cy="0" r="1" gradientUnits="userSpaceOnUse" gradientTransform="translate(150.829 131.254) rotate(93.4574) scale(115.684 25.714)">
<stop stop-color="#A7FFDC"/>
<stop offset="1" stop-color="#39BE8A"/>
</radialGradient>
<radialGradient id="paint4_radial_290_224" cx="0" cy="0" r="1" gradientUnits="userSpaceOnUse" gradientTransform="translate(143.848 171.692) rotate(90.0284) scale(52.7308 9.50026)">
<stop stop-color="#A7FFDC"/>
<stop offset="1" stop-color="#058D57"/>
</radialGradient>
<radialGradient id="paint5_angular_290_224" cx="0" cy="0" r="1" gradientUnits="userSpaceOnUse" gradientTransform="translate(142.999 65.579) rotate(127.289) scale(402.186 39.3072)">
<stop stop-color="#60FFC1"/>
<stop offset="1" stop-color="#058D57"/>
</radialGradient>
</defs>
</svg>
