<svg width="435" height="55" viewBox="0 0 435 55" fill="none" xmlns="http://www.w3.org/2000/svg">
<path d="M0 21.5907C0 20.8321 0.295028 20.2315 0.885083 19.7889C1.47514 19.3464 2.33915 19.1462 3.47711 19.1883H29.6503L28.6071 23.835C28.4385 24.6147 28.0908 25.2259 27.564 25.6684C27.0582 26.0899 26.2469 26.2795 25.13 26.2374H8.18701V40.3355H29.6503L28.5755 45.0138C28.4069 45.7935 28.0592 46.3941 27.5324 46.8156C27.0266 47.216 26.2153 47.4162 25.0984 47.4162H0V21.5907Z" fill="white"/>
<path d="M34.0179 21.5907C34.0179 20.8321 34.3129 20.2315 34.903 19.7889C35.493 19.3464 36.357 19.1462 37.495 19.1883H61.7083V45.1402C61.6662 45.8146 61.3817 46.352 60.8549 46.7524C60.328 47.1527 59.5905 47.374 58.6422 47.4162H34.0179V21.5907ZM52.9839 40.3355C53.1315 40.3355 53.2579 40.2828 53.3633 40.1775C53.4686 40.0721 53.5213 39.9456 53.5213 39.7981V26.2374H42.7423C42.5948 26.2374 42.4683 26.2901 42.363 26.3955C42.2576 26.5008 42.2049 26.6378 42.2049 26.8064V40.3355H52.9839Z" fill="white"/>
<path d="M94.0679 19.1883C94.7423 19.1883 95.2902 19.2621 95.7117 19.4096C96.1331 19.5571 96.4598 19.7889 96.6916 20.105C96.9445 20.4211 97.113 20.8321 97.1973 21.3378C97.2816 21.8225 97.3238 22.4126 97.3238 23.108V44.9822C97.3238 45.7619 97.0287 46.373 96.4387 46.8156C95.8486 47.2581 94.9846 47.4583 93.8467 47.4162H77.1881C77.2092 47.3108 77.2724 47.0052 77.3778 46.4995C77.5042 45.9937 77.6307 45.4669 77.7571 44.919C77.9046 44.2657 78.0732 43.5387 78.2629 42.7379C78.4315 41.9582 78.7686 41.3576 79.2744 40.9361C79.7802 40.4936 80.5915 40.2828 81.7084 40.3039H88.5994C88.7469 40.3039 88.8733 40.2617 88.9787 40.1775C89.0841 40.0721 89.1368 39.9351 89.1368 39.7665V26.7748C89.1368 26.6062 89.0841 26.4797 88.9787 26.3955C88.8733 26.2901 88.7469 26.2374 88.5994 26.2374H75.5128V47.4162H67.3258V19.1883H94.0679Z" fill="white"/>
<path d="M102.949 21.5907C102.949 20.8321 103.244 20.2315 103.834 19.7889C104.424 19.3464 105.288 19.1462 106.426 19.1883H132.599L131.556 23.835C131.387 24.6147 131.04 25.2259 130.513 25.6684C130.007 26.0899 129.196 26.2795 128.079 26.2374H111.136V30.0622L130.861 30.0938L129.976 34.7405C129.786 35.5624 129.459 36.184 128.996 36.6055C128.553 37.0059 127.858 37.1956 126.909 37.1745H111.136V40.3355H157.603V37.7119C157.603 37.5433 157.55 37.4063 157.445 37.3009C157.36 37.1956 157.234 37.1429 157.065 37.1429H139.395C138.953 37.1429 138.531 37.0586 138.131 36.89C137.731 36.7214 137.383 36.4896 137.088 36.1946C136.793 35.8996 136.561 35.5518 136.392 35.1514C136.224 34.7511 136.139 34.3296 136.139 33.887V21.5907C136.139 20.8321 136.435 20.2315 137.025 19.7889C137.615 19.3464 138.479 19.1462 139.617 19.1883H165.79L164.747 23.835C164.557 24.6147 164.209 25.2259 163.703 25.6684C163.198 26.0899 162.386 26.2795 161.27 26.2374H144.864C144.716 26.2374 144.59 26.2901 144.485 26.3955C144.379 26.5008 144.326 26.6378 144.326 26.8064V29.5248C144.326 29.6724 144.379 29.7988 144.485 29.9042C144.59 30.0095 144.716 30.0622 144.864 30.0622C144.906 30.0622 145.191 30.0622 145.717 30.0622C146.244 30.0622 146.929 30.0728 147.772 30.0938C148.615 30.0938 149.563 30.0938 150.617 30.0938C151.692 30.0938 152.777 30.0938 153.873 30.0938H162.629C163.514 30.0938 164.262 30.3994 164.873 31.0105C165.484 31.6217 165.79 32.3698 165.79 33.2548V47.4162H102.949V21.5907Z" fill="white"/>
<path d="M267.698 21.5907C267.698 20.8321 267.993 20.2315 268.583 19.7889C269.173 19.3464 270.037 19.1462 271.175 19.1883H297.348L296.305 23.835C296.137 24.6147 295.789 25.2259 295.262 25.6684C294.756 26.0899 293.945 26.2795 292.828 26.2374H276.422C276.275 26.2374 276.148 26.2901 276.043 26.3955C275.938 26.5008 275.885 26.6378 275.885 26.8064V40.3355H289.161V37.1745H281.859C281.037 37.2166 280.374 37.0586 279.868 36.7003C279.341 36.2999 278.983 35.6467 278.793 34.7405L277.908 30.0938L297.348 30.0622V47.4162H267.698V21.5907Z" fill="white"/>
<path d="M302.982 47.4162V30.0622L330.893 30.0938L330.008 34.7405C329.797 35.6888 329.429 36.3421 328.902 36.7003C328.396 37.0375 327.743 37.1956 326.942 37.1745H311.169V40.3671H332.632L331.557 45.0454C331.388 45.804 331.041 46.3941 330.514 46.8156C330.008 47.216 329.197 47.4162 328.08 47.4162H302.982ZM302.982 21.6223C302.982 20.8426 303.277 20.2315 303.867 19.7889C304.457 19.3464 305.321 19.1462 306.459 19.1883H332.632C332.632 19.2094 332.569 19.4623 332.442 19.947C332.337 20.4106 332.221 20.9374 332.094 21.5275C331.947 22.2229 331.778 22.9921 331.589 23.835C331.42 24.6147 331.072 25.2259 330.546 25.6684C330.04 26.111 329.228 26.3112 328.112 26.269H302.982V21.6223Z" fill="white"/>
<path d="M360.96 19.1883C362.351 19.1883 363.425 19.4096 364.184 19.8522C364.943 20.2947 365.501 20.8637 365.859 21.5591C366.239 22.2335 366.46 22.9921 366.523 23.835C366.586 24.6569 366.618 25.4577 366.618 26.2374V47.4162H358.431V37.1745H347.178L347.778 33.2232C347.947 32.4014 348.253 31.7797 348.695 31.3582C349.159 30.9368 349.865 30.7471 350.813 30.7893H358.431C358.431 29.9042 358.42 29.1877 358.399 28.6398C358.399 28.0919 358.326 27.6704 358.178 27.3754C358.031 27.0803 357.778 26.8801 357.42 26.7748C357.082 26.6694 356.587 26.6167 355.934 26.6167H345.186V47.4162H336.999V19.1883H360.96Z" fill="white"/>
<path d="M372.252 21.9068C372.252 21.1482 372.515 20.5054 373.042 19.9786C373.59 19.4307 374.243 19.1567 375.002 19.1567H399.911C399.911 19.3043 399.911 19.7573 399.911 20.516C399.911 21.2535 399.911 22.1386 399.911 23.1712C399.911 24.2038 399.9 25.3207 399.879 26.5219C399.879 27.702 399.879 28.8189 399.879 29.8726C399.879 30.9052 399.879 31.7902 399.879 32.5278C399.879 33.2654 399.879 33.7079 399.879 33.8554C399.879 34.5087 399.806 35.0461 399.658 35.4675C399.532 35.889 399.289 36.2262 398.931 36.4791C398.573 36.732 398.088 36.9111 397.477 37.0164C396.887 37.1218 396.128 37.1745 395.201 37.1745H394.474L396.149 40.3355H426.052V37.7119C426.052 37.5433 426 37.4063 425.894 37.3009C425.789 37.1956 425.663 37.1429 425.515 37.1429H408.762C408.319 37.1429 407.898 37.0586 407.497 36.89C407.097 36.7214 406.739 36.4896 406.423 36.1946C406.128 35.8996 405.896 35.5518 405.727 35.1514C405.559 34.7511 405.474 34.3296 405.474 33.887V21.5907C405.474 20.8321 405.769 20.2315 406.359 19.7889C406.97 19.3464 407.834 19.1462 408.951 19.1883H434.239C434.218 19.1883 434.155 19.4307 434.05 19.9154C433.944 20.4001 433.829 20.9374 433.702 21.5275C433.555 22.2229 433.375 22.9921 433.165 23.835C432.996 24.6147 432.648 25.2259 432.122 25.6684C431.616 26.0899 430.804 26.2795 429.688 26.2374H414.199C414.051 26.2374 413.925 26.2901 413.819 26.3955C413.714 26.5008 413.661 26.6378 413.661 26.8064V29.5248C413.661 29.6724 413.714 29.7988 413.819 29.9042C413.925 30.0095 414.051 30.0622 414.199 30.0622C414.241 30.0622 414.515 30.0622 415.021 30.0622C415.526 30.0622 416.18 30.0728 416.98 30.0938C417.781 30.0938 418.677 30.0938 419.667 30.0938C420.679 30.0938 421.711 30.0938 422.765 30.0938H431.047C431.489 30.0938 431.9 30.1781 432.28 30.3467C432.68 30.5153 433.017 30.7471 433.291 31.0421C433.586 31.3161 433.818 31.6427 433.987 32.022C434.155 32.4014 434.239 32.8123 434.239 33.2548V47.4162H391.281V47.3846H391.06C391.081 47.3846 391.092 47.3635 391.092 47.3213C391.092 47.237 391.102 47.1633 391.123 47.1001C390.681 46.2361 390.228 45.351 389.764 44.4448C389.322 43.5387 388.879 42.6536 388.436 41.7896C388.015 40.9256 387.604 40.1037 387.204 39.324C386.803 38.5232 386.445 37.8067 386.129 37.1745H382.178L382.999 33.1916C383.168 32.3908 383.558 31.7797 384.169 31.3582C384.801 30.9157 385.686 30.7155 386.824 30.7576H391.155C391.513 30.7576 391.692 30.5785 391.692 30.2203V26.2374H380.976C380.808 26.2374 380.671 26.2901 380.566 26.3955C380.481 26.5008 380.439 26.6273 380.439 26.7748V47.4162H372.252V21.9068Z" fill="white"/>
<path d="M206.032 13.785L198.57 54.1887L180.988 54.1887L198.242 9.54375C200.062 4.85603 203.411 3.07023 208.58 3.07023C213.676 3.07023 217.025 4.85603 218.772 9.54375L235.371 54.1887H218.772L210.91 13.785C210.473 12.5945 209.672 12.0736 208.507 12.0736C207.343 12.0736 206.542 12.5945 206.032 13.785Z" fill="url(#paint0_angular_287_219)"/>
<path d="M236.887 14.9012H244.55L246.466 54.1887L234.952 54.1887L236.887 14.9012ZM236.761 0H244.55V9.15222H236.761V0Z" fill="url(#paint1_angular_287_219)"/>
<defs>
<radialGradient id="paint0_angular_287_219" cx="0" cy="0" r="1" gradientUnits="userSpaceOnUse" gradientTransform="translate(213.897 26.7749) rotate(93.3822) scale(292.268 63.5569)">
<stop stop-color="#A7FFDC"/>
<stop offset="1" stop-color="#058D57"/>
</radialGradient>
<radialGradient id="paint1_angular_287_219" cx="0" cy="0" r="1" gradientUnits="userSpaceOnUse" gradientTransform="translate(213.897 26.7749) rotate(93.3822) scale(292.268 63.5569)">
<stop stop-color="#A7FFDC"/>
<stop offset="1" stop-color="#058D57"/>
</radialGradient>
</defs>
</svg>
