<svg width="28" height="28" viewBox="0 0 28 28" fill="none" xmlns="http://www.w3.org/2000/svg">
<path d="M25.3906 20.195C24.8482 19.04 24.1973 17.57 23.4379 16.205C22.6786 14.735 21.9193 13.37 21.2684 12.11C19.9666 9.8 17.9055 6.86 16.3867 4.76C15.8443 4.025 14.9764 3.5 14.0002 3.5C13.0239 3.5 12.156 3.92 11.6136 4.76C10.0949 6.86 8.14223 9.8 6.73198 12.11C5.32174 14.525 3.69453 17.885 2.60973 20.195C2.17581 21.035 2.28429 22.085 2.71822 22.82C3.26061 23.66 4.12846 24.08 5.10477 24.185C7.70831 24.29 11.2882 24.5 14.0002 24.5C16.7122 24.5 20.4005 24.29 22.8955 24.185C23.8719 24.185 24.7397 23.66 25.2821 22.82C25.7161 22.085 25.8246 21.035 25.3906 20.195ZM13.1323 12.215C13.1323 11.795 13.4578 11.375 14.0002 11.375C14.5425 11.375 14.868 11.69 14.868 12.215V16.415C14.868 16.835 14.5425 17.255 14.0002 17.255C13.4578 17.255 13.1323 16.94 13.1323 16.415V12.215ZM14.0002 20.615C13.4578 20.615 12.9154 20.09 12.9154 19.565C12.9154 19.04 13.4578 18.515 14.0002 18.515C14.5425 18.515 15.0849 19.04 15.0849 19.565C15.0849 20.09 14.5425 20.615 14.0002 20.615Z" fill="#FFE051"/>
</svg>
